ISO-10303-21;
HEADER;
/* Generated by software containing ST-Developer
 * from STEP Tools, Inc. (www.steptools.com) 
 */
/* OPTION: using custom renumber hook */

FILE_DESCRIPTION(
/* description */ ('STEP AP242',
'CAx-IF Rec.Pracs.---Representation and Presentation of Product Manufa
cturing Information (PMI)---4.0---2014-10-13',
'CAx-IF Rec.Pracs.---3D Tessellated Geometry---0.4---2014-09-14','2;1'),

/* implementation_level */ '2;1');

FILE_NAME(
/* name */ '093043W',
/* time_stamp */ '2025-12-17T23:37:36+01:00',
/* author */ ('License CC BY-ND 4.0'),
/* organization */ ('CADENAS'),
/* preprocessor_version */ 'ST-DEVELOPER v20',
/* originating_system */ 'PARTsolutions',
/* authorisation */ '  ');

FILE_SCHEMA (('AP242_MANAGED_MODEL_BASED_3D_ENGINEERING_MIM_LF { 1 0 10303 442 1 1 4 }'));
ENDSEC;

DATA;
#10=SHAPE_REPRESENTATION_RELATIONSHIP('','',#531,#11);
#11=ADVANCED_BREP_SHAPE_REPRESENTATION('',(#529),#873);
#12=PLANE('',#536);
#13=PLANE('',#541);
#14=PLANE('',#542);
#15=PLANE('',#550);
#16=PLANE('',#555);
#17=PLANE('',#556);
#18=PLANE('',#561);
#19=PLANE('',#562);
#20=PLANE('',#563);
#21=PLANE('',#565);
#22=PLANE('',#567);
#23=PLANE('',#569);
#24=PLANE('',#571);
#25=PLANE('',#573);
#26=PLANE('',#575);
#27=PLANE('',#577);
#28=LINE('',#730,#80);
#29=LINE('',#734,#81);
#30=LINE('',#736,#82);
#31=LINE('',#741,#83);
#32=LINE('',#744,#84);
#33=LINE('',#749,#85);
#34=LINE('',#752,#86);
#35=LINE('',#754,#87);
#36=LINE('',#756,#88);
#37=LINE('',#758,#89);
#38=LINE('',#760,#90);
#39=LINE('',#762,#91);
#40=LINE('',#764,#92);
#41=LINE('',#769,#93);
#42=LINE('',#772,#94);
#43=LINE('',#777,#95);
#44=LINE('',#780,#96);
#45=LINE('',#782,#97);
#46=LINE('',#784,#98);
#47=LINE('',#788,#99);
#48=LINE('',#795,#100);
#49=LINE('',#799,#101);
#50=LINE('',#803,#102);
#51=LINE('',#807,#103);
#52=LINE('',#808,#104);
#53=LINE('',#810,#105);
#54=LINE('',#812,#106);
#55=LINE('',#814,#107);
#56=LINE('',#816,#108);
#57=LINE('',#818,#109);
#58=LINE('',#823,#110);
#59=LINE('',#827,#111);
#60=LINE('',#831,#112);
#61=LINE('',#835,#113);
#62=LINE('',#836,#114);
#63=LINE('',#837,#115);
#64=LINE('',#841,#116);
#65=LINE('',#842,#117);
#66=LINE('',#844,#118);
#67=LINE('',#846,#119);
#68=LINE('',#849,#120);
#69=LINE('',#850,#121);
#70=LINE('',#852,#122);
#71=LINE('',#854,#123);
#72=LINE('',#857,#124);
#73=LINE('',#858,#125);
#74=LINE('',#860,#126);
#75=LINE('',#862,#127);
#76=LINE('',#865,#128);
#77=LINE('',#866,#129);
#78=LINE('',#868,#130);
#79=LINE('',#870,#131);
#80=VECTOR('',#585,1000.);
#81=VECTOR('',#588,1000.);
#82=VECTOR('',#591,1000.);
#83=VECTOR('',#594,1000.);
#84=VECTOR('',#597,1000.);
#85=VECTOR('',#600,1000.);
#86=VECTOR('',#603,1000.);
#87=VECTOR('',#604,1000.);
#88=VECTOR('',#605,1000.);
#89=VECTOR('',#608,1000.);
#90=VECTOR('',#609,1000.);
#91=VECTOR('',#610,1000.);
#92=VECTOR('',#613,1000.);
#93=VECTOR('',#616,1000.);
#94=VECTOR('',#619,1000.);
#95=VECTOR('',#622,1000.);
#96=VECTOR('',#625,1000.);
#97=VECTOR('',#626,1000.);
#98=VECTOR('',#627,1000.);
#99=VECTOR('',#632,1000.);
#100=VECTOR('',#639,1000.);
#101=VECTOR('',#642,1000.);
#102=VECTOR('',#645,1000.);
#103=VECTOR('',#648,1000.);
#104=VECTOR('',#649,1000.);
#105=VECTOR('',#650,1000.);
#106=VECTOR('',#651,1000.);
#107=VECTOR('',#654,1000.);
#108=VECTOR('',#655,1000.);
#109=VECTOR('',#656,1000.);
#110=VECTOR('',#661,1000.);
#111=VECTOR('',#664,1000.);
#112=VECTOR('',#667,1000.);
#113=VECTOR('',#670,1000.);
#114=VECTOR('',#671,1000.);
#115=VECTOR('',#672,1000.);
#116=VECTOR('',#679,1000.);
#117=VECTOR('',#680,1000.);
#118=VECTOR('',#683,1000.);
#119=VECTOR('',#686,1000.);
#120=VECTOR('',#691,1000.);
#121=VECTOR('',#692,1000.);
#122=VECTOR('',#695,1000.);
#123=VECTOR('',#698,1000.);
#124=VECTOR('',#703,1000.);
#125=VECTOR('',#704,1000.);
#126=VECTOR('',#707,1000.);
#127=VECTOR('',#710,1000.);
#128=VECTOR('',#715,1000.);
#129=VECTOR('',#716,1000.);
#130=VECTOR('',#719,1000.);
#131=VECTOR('',#722,1000.);
#132=ORIENTED_EDGE('',*,*,#276,.T.);
#133=ORIENTED_EDGE('',*,*,#277,.F.);
#134=ORIENTED_EDGE('',*,*,#278,.F.);
#135=ORIENTED_EDGE('',*,*,#279,.T.);
#136=ORIENTED_EDGE('',*,*,#280,.T.);
#137=ORIENTED_EDGE('',*,*,#281,.T.);
#138=ORIENTED_EDGE('',*,*,#282,.T.);
#139=ORIENTED_EDGE('',*,*,#283,.T.);
#140=ORIENTED_EDGE('',*,*,#284,.T.);
#141=ORIENTED_EDGE('',*,*,#285,.T.);
#142=ORIENTED_EDGE('',*,*,#286,.T.);
#143=ORIENTED_EDGE('',*,*,#287,.T.);
#144=ORIENTED_EDGE('',*,*,#288,.T.);
#145=ORIENTED_EDGE('',*,*,#289,.F.);
#146=ORIENTED_EDGE('',*,*,#290,.F.);
#147=ORIENTED_EDGE('',*,*,#277,.T.);
#148=ORIENTED_EDGE('',*,*,#291,.T.);
#149=ORIENTED_EDGE('',*,*,#292,.F.);
#150=ORIENTED_EDGE('',*,*,#293,.F.);
#151=ORIENTED_EDGE('',*,*,#289,.T.);
#152=ORIENTED_EDGE('',*,*,#294,.F.);
#153=ORIENTED_EDGE('',*,*,#295,.F.);
#154=ORIENTED_EDGE('',*,*,#296,.F.);
#155=ORIENTED_EDGE('',*,*,#297,.F.);
#156=ORIENTED_EDGE('',*,*,#298,.F.);
#157=ORIENTED_EDGE('',*,*,#299,.F.);
#158=ORIENTED_EDGE('',*,*,#300,.F.);
#159=ORIENTED_EDGE('',*,*,#301,.F.);
#160=ORIENTED_EDGE('',*,*,#302,.T.);
#161=ORIENTED_EDGE('',*,*,#303,.F.);
#162=ORIENTED_EDGE('',*,*,#304,.F.);
#163=ORIENTED_EDGE('',*,*,#292,.T.);
#164=ORIENTED_EDGE('',*,*,#305,.F.);
#165=ORIENTED_EDGE('',*,*,#306,.F.);
#166=ORIENTED_EDGE('',*,*,#307,.T.);
#167=ORIENTED_EDGE('',*,*,#303,.T.);
#168=ORIENTED_EDGE('',*,*,#308,.T.);
#169=ORIENTED_EDGE('',*,*,#309,.T.);
#170=ORIENTED_EDGE('',*,*,#310,.T.);
#171=ORIENTED_EDGE('',*,*,#311,.T.);
#172=ORIENTED_EDGE('',*,*,#312,.T.);
#173=ORIENTED_EDGE('',*,*,#313,.T.);
#174=ORIENTED_EDGE('',*,*,#314,.T.);
#175=ORIENTED_EDGE('',*,*,#315,.T.);
#176=ORIENTED_EDGE('',*,*,#316,.T.);
#177=ORIENTED_EDGE('',*,*,#317,.F.);
#178=ORIENTED_EDGE('',*,*,#318,.F.);
#179=ORIENTED_EDGE('',*,*,#306,.T.);
#180=ORIENTED_EDGE('',*,*,#319,.T.);
#181=ORIENTED_EDGE('',*,*,#320,.F.);
#182=ORIENTED_EDGE('',*,*,#321,.F.);
#183=ORIENTED_EDGE('',*,*,#317,.T.);
#184=ORIENTED_EDGE('',*,*,#322,.F.);
#185=ORIENTED_EDGE('',*,*,#323,.F.);
#186=ORIENTED_EDGE('',*,*,#324,.F.);
#187=ORIENTED_EDGE('',*,*,#325,.F.);
#188=ORIENTED_EDGE('',*,*,#326,.F.);
#189=ORIENTED_EDGE('',*,*,#327,.F.);
#190=ORIENTED_EDGE('',*,*,#328,.F.);
#191=ORIENTED_EDGE('',*,*,#329,.F.);
#192=ORIENTED_EDGE('',*,*,#330,.T.);
#193=ORIENTED_EDGE('',*,*,#279,.F.);
#194=ORIENTED_EDGE('',*,*,#331,.F.);
#195=ORIENTED_EDGE('',*,*,#320,.T.);
#196=ORIENTED_EDGE('',*,*,#278,.T.);
#197=ORIENTED_EDGE('',*,*,#290,.T.);
#198=ORIENTED_EDGE('',*,*,#293,.T.);
#199=ORIENTED_EDGE('',*,*,#304,.T.);
#200=ORIENTED_EDGE('',*,*,#307,.F.);
#201=ORIENTED_EDGE('',*,*,#318,.T.);
#202=ORIENTED_EDGE('',*,*,#321,.T.);
#203=ORIENTED_EDGE('',*,*,#331,.T.);
#204=ORIENTED_EDGE('',*,*,#276,.F.);
#205=ORIENTED_EDGE('',*,*,#330,.F.);
#206=ORIENTED_EDGE('',*,*,#319,.F.);
#207=ORIENTED_EDGE('',*,*,#316,.F.);
#208=ORIENTED_EDGE('',*,*,#305,.T.);
#209=ORIENTED_EDGE('',*,*,#302,.F.);
#210=ORIENTED_EDGE('',*,*,#291,.F.);
#211=ORIENTED_EDGE('',*,*,#288,.F.);
#212=ORIENTED_EDGE('',*,*,#284,.F.);
#213=ORIENTED_EDGE('',*,*,#332,.F.);
#214=ORIENTED_EDGE('',*,*,#298,.T.);
#215=ORIENTED_EDGE('',*,*,#333,.T.);
#216=ORIENTED_EDGE('',*,*,#285,.F.);
#217=ORIENTED_EDGE('',*,*,#333,.F.);
#218=ORIENTED_EDGE('',*,*,#301,.T.);
#219=ORIENTED_EDGE('',*,*,#334,.T.);
#220=ORIENTED_EDGE('',*,*,#286,.F.);
#221=ORIENTED_EDGE('',*,*,#334,.F.);
#222=ORIENTED_EDGE('',*,*,#300,.T.);
#223=ORIENTED_EDGE('',*,*,#335,.T.);
#224=ORIENTED_EDGE('',*,*,#287,.F.);
#225=ORIENTED_EDGE('',*,*,#335,.F.);
#226=ORIENTED_EDGE('',*,*,#299,.T.);
#227=ORIENTED_EDGE('',*,*,#332,.T.);
#228=ORIENTED_EDGE('',*,*,#280,.F.);
#229=ORIENTED_EDGE('',*,*,#336,.F.);
#230=ORIENTED_EDGE('',*,*,#294,.T.);
#231=ORIENTED_EDGE('',*,*,#337,.T.);
#232=ORIENTED_EDGE('',*,*,#281,.F.);
#233=ORIENTED_EDGE('',*,*,#337,.F.);
#234=ORIENTED_EDGE('',*,*,#297,.T.);
#235=ORIENTED_EDGE('',*,*,#338,.T.);
#236=ORIENTED_EDGE('',*,*,#282,.F.);
#237=ORIENTED_EDGE('',*,*,#338,.F.);
#238=ORIENTED_EDGE('',*,*,#296,.T.);
#239=ORIENTED_EDGE('',*,*,#339,.T.);
#240=ORIENTED_EDGE('',*,*,#283,.F.);
#241=ORIENTED_EDGE('',*,*,#339,.F.);
#242=ORIENTED_EDGE('',*,*,#295,.T.);
#243=ORIENTED_EDGE('',*,*,#336,.T.);
#244=ORIENTED_EDGE('',*,*,#327,.T.);
#245=ORIENTED_EDGE('',*,*,#340,.F.);
#246=ORIENTED_EDGE('',*,*,#313,.F.);
#247=ORIENTED_EDGE('',*,*,#341,.T.);
#248=ORIENTED_EDGE('',*,*,#326,.T.);
#249=ORIENTED_EDGE('',*,*,#342,.F.);
#250=ORIENTED_EDGE('',*,*,#314,.F.);
#251=ORIENTED_EDGE('',*,*,#340,.T.);
#252=ORIENTED_EDGE('',*,*,#329,.T.);
#253=ORIENTED_EDGE('',*,*,#343,.F.);
#254=ORIENTED_EDGE('',*,*,#315,.F.);
#255=ORIENTED_EDGE('',*,*,#342,.T.);
#256=ORIENTED_EDGE('',*,*,#328,.T.);
#257=ORIENTED_EDGE('',*,*,#341,.F.);
#258=ORIENTED_EDGE('',*,*,#312,.F.);
#259=ORIENTED_EDGE('',*,*,#343,.T.);
#260=ORIENTED_EDGE('',*,*,#323,.T.);
#261=ORIENTED_EDGE('',*,*,#344,.F.);
#262=ORIENTED_EDGE('',*,*,#309,.F.);
#263=ORIENTED_EDGE('',*,*,#345,.T.);
#264=ORIENTED_EDGE('',*,*,#322,.T.);
#265=ORIENTED_EDGE('',*,*,#346,.F.);
#266=ORIENTED_EDGE('',*,*,#310,.F.);
#267=ORIENTED_EDGE('',*,*,#344,.T.);
#268=ORIENTED_EDGE('',*,*,#325,.T.);
#269=ORIENTED_EDGE('',*,*,#347,.F.);
#270=ORIENTED_EDGE('',*,*,#311,.F.);
#271=ORIENTED_EDGE('',*,*,#346,.T.);
#272=ORIENTED_EDGE('',*,*,#324,.T.);
#273=ORIENTED_EDGE('',*,*,#345,.F.);
#274=ORIENTED_EDGE('',*,*,#308,.F.);
#275=ORIENTED_EDGE('',*,*,#347,.T.);
#276=EDGE_CURVE('',#348,#349,#396,.T.);
#277=EDGE_CURVE('',#350,#349,#28,.T.);
#278=EDGE_CURVE('',#351,#350,#397,.T.);
#279=EDGE_CURVE('',#351,#348,#29,.T.);
#280=EDGE_CURVE('',#352,#353,#30,.T.);
#281=EDGE_CURVE('',#353,#354,#398,.T.);
#282=EDGE_CURVE('',#354,#355,#31,.T.);
#283=EDGE_CURVE('',#355,#352,#399,.T.);
#284=EDGE_CURVE('',#356,#357,#32,.T.);
#285=EDGE_CURVE('',#357,#358,#400,.T.);
#286=EDGE_CURVE('',#358,#359,#33,.T.);
#287=EDGE_CURVE('',#359,#356,#401,.T.);
#288=EDGE_CURVE('',#349,#360,#34,.T.);
#289=EDGE_CURVE('',#361,#360,#35,.T.);
#290=EDGE_CURVE('',#350,#361,#36,.T.);
#291=EDGE_CURVE('',#360,#362,#37,.T.);
#292=EDGE_CURVE('',#363,#362,#38,.T.);
#293=EDGE_CURVE('',#361,#363,#39,.T.);
#294=EDGE_CURVE('',#364,#365,#40,.T.);
#295=EDGE_CURVE('',#366,#364,#402,.T.);
#296=EDGE_CURVE('',#367,#366,#41,.T.);
#297=EDGE_CURVE('',#365,#367,#403,.T.);
#298=EDGE_CURVE('',#368,#369,#42,.T.);
#299=EDGE_CURVE('',#370,#368,#404,.T.);
#300=EDGE_CURVE('',#371,#370,#43,.T.);
#301=EDGE_CURVE('',#369,#371,#405,.T.);
#302=EDGE_CURVE('',#362,#372,#44,.T.);
#303=EDGE_CURVE('',#373,#372,#45,.T.);
#304=EDGE_CURVE('',#363,#373,#46,.T.);
#305=EDGE_CURVE('',#374,#372,#406,.T.);
#306=EDGE_CURVE('',#375,#374,#47,.T.);
#307=EDGE_CURVE('',#375,#373,#407,.T.);
#308=EDGE_CURVE('',#376,#377,#408,.T.);
#309=EDGE_CURVE('',#377,#378,#48,.T.);
#310=EDGE_CURVE('',#378,#379,#409,.T.);
#311=EDGE_CURVE('',#379,#376,#49,.T.);
#312=EDGE_CURVE('',#380,#381,#410,.T.);
#313=EDGE_CURVE('',#381,#382,#50,.T.);
#314=EDGE_CURVE('',#382,#383,#411,.T.);
#315=EDGE_CURVE('',#383,#380,#51,.T.);
#316=EDGE_CURVE('',#374,#384,#52,.T.);
#317=EDGE_CURVE('',#385,#384,#53,.T.);
#318=EDGE_CURVE('',#375,#385,#54,.T.);
#319=EDGE_CURVE('',#384,#386,#55,.T.);
#320=EDGE_CURVE('',#387,#386,#56,.T.);
#321=EDGE_CURVE('',#385,#387,#57,.T.);
#322=EDGE_CURVE('',#388,#389,#412,.T.);
#323=EDGE_CURVE('',#390,#388,#58,.T.);
#324=EDGE_CURVE('',#391,#390,#413,.T.);
#325=EDGE_CURVE('',#389,#391,#59,.T.);
#326=EDGE_CURVE('',#392,#393,#414,.T.);
#327=EDGE_CURVE('',#394,#392,#60,.T.);
#328=EDGE_CURVE('',#395,#394,#415,.T.);
#329=EDGE_CURVE('',#393,#395,#61,.T.);
#330=EDGE_CURVE('',#386,#348,#62,.T.);
#331=EDGE_CURVE('',#387,#351,#63,.T.);
#332=EDGE_CURVE('',#368,#356,#64,.T.);
#333=EDGE_CURVE('',#369,#357,#65,.T.);
#334=EDGE_CURVE('',#371,#358,#66,.T.);
#335=EDGE_CURVE('',#370,#359,#67,.T.);
#336=EDGE_CURVE('',#364,#352,#68,.T.);
#337=EDGE_CURVE('',#365,#353,#69,.T.);
#338=EDGE_CURVE('',#367,#354,#70,.T.);
#339=EDGE_CURVE('',#366,#355,#71,.T.);
#340=EDGE_CURVE('',#382,#392,#72,.T.);
#341=EDGE_CURVE('',#381,#394,#73,.T.);
#342=EDGE_CURVE('',#383,#393,#74,.T.);
#343=EDGE_CURVE('',#380,#395,#75,.T.);
#344=EDGE_CURVE('',#378,#388,#76,.T.);
#345=EDGE_CURVE('',#377,#390,#77,.T.);
#346=EDGE_CURVE('',#379,#389,#78,.T.);
#347=EDGE_CURVE('',#376,#391,#79,.T.);
#348=VERTEX_POINT('',#728);
#349=VERTEX_POINT('',#729);
#350=VERTEX_POINT('',#731);
#351=VERTEX_POINT('',#733);
#352=VERTEX_POINT('',#737);
#353=VERTEX_POINT('',#738);
#354=VERTEX_POINT('',#740);
#355=VERTEX_POINT('',#742);
#356=VERTEX_POINT('',#745);
#357=VERTEX_POINT('',#746);
#358=VERTEX_POINT('',#748);
#359=VERTEX_POINT('',#750);
#360=VERTEX_POINT('',#753);
#361=VERTEX_POINT('',#755);
#362=VERTEX_POINT('',#759);
#363=VERTEX_POINT('',#761);
#364=VERTEX_POINT('',#765);
#365=VERTEX_POINT('',#766);
#366=VERTEX_POINT('',#768);
#367=VERTEX_POINT('',#770);
#368=VERTEX_POINT('',#773);
#369=VERTEX_POINT('',#774);
#370=VERTEX_POINT('',#776);
#371=VERTEX_POINT('',#778);
#372=VERTEX_POINT('',#781);
#373=VERTEX_POINT('',#783);
#374=VERTEX_POINT('',#787);
#375=VERTEX_POINT('',#789);
#376=VERTEX_POINT('',#793);
#377=VERTEX_POINT('',#794);
#378=VERTEX_POINT('',#796);
#379=VERTEX_POINT('',#798);
#380=VERTEX_POINT('',#801);
#381=VERTEX_POINT('',#802);
#382=VERTEX_POINT('',#804);
#383=VERTEX_POINT('',#806);
#384=VERTEX_POINT('',#809);
#385=VERTEX_POINT('',#811);
#386=VERTEX_POINT('',#815);
#387=VERTEX_POINT('',#817);
#388=VERTEX_POINT('',#821);
#389=VERTEX_POINT('',#822);
#390=VERTEX_POINT('',#824);
#391=VERTEX_POINT('',#826);
#392=VERTEX_POINT('',#829);
#393=VERTEX_POINT('',#830);
#394=VERTEX_POINT('',#832);
#395=VERTEX_POINT('',#834);
#396=CIRCLE('',#534,7.00000000000001);
#397=CIRCLE('',#535,7.00000000000001);
#398=CIRCLE('',#537,3.1);
#399=CIRCLE('',#538,3.1);
#400=CIRCLE('',#539,3.1);
#401=CIRCLE('',#540,3.1);
#402=CIRCLE('',#543,3.1);
#403=CIRCLE('',#544,3.1);
#404=CIRCLE('',#545,3.1);
#405=CIRCLE('',#546,3.1);
#406=CIRCLE('',#548,4.);
#407=CIRCLE('',#549,4.);
#408=CIRCLE('',#551,3.1);
#409=CIRCLE('',#552,3.1);
#410=CIRCLE('',#553,3.1);
#411=CIRCLE('',#554,3.1);
#412=CIRCLE('',#557,3.1);
#413=CIRCLE('',#558,3.1);
#414=CIRCLE('',#559,3.1);
#415=CIRCLE('',#560,3.1);
#416=EDGE_LOOP('',(#132,#133,#134,#135));
#417=EDGE_LOOP('',(#136,#137,#138,#139));
#418=EDGE_LOOP('',(#140,#141,#142,#143));
#419=EDGE_LOOP('',(#144,#145,#146,#147));
#420=EDGE_LOOP('',(#148,#149,#150,#151));
#421=EDGE_LOOP('',(#152,#153,#154,#155));
#422=EDGE_LOOP('',(#156,#157,#158,#159));
#423=EDGE_LOOP('',(#160,#161,#162,#163));
#424=EDGE_LOOP('',(#164,#165,#166,#167));
#425=EDGE_LOOP('',(#168,#169,#170,#171));
#426=EDGE_LOOP('',(#172,#173,#174,#175));
#427=EDGE_LOOP('',(#176,#177,#178,#179));
#428=EDGE_LOOP('',(#180,#181,#182,#183));
#429=EDGE_LOOP('',(#184,#185,#186,#187));
#430=EDGE_LOOP('',(#188,#189,#190,#191));
#431=EDGE_LOOP('',(#192,#193,#194,#195));
#432=EDGE_LOOP('',(#196,#197,#198,#199,#200,#201,#202,#203));
#433=EDGE_LOOP('',(#204,#205,#206,#207,#208,#209,#210,#211));
#434=EDGE_LOOP('',(#212,#213,#214,#215));
#435=EDGE_LOOP('',(#216,#217,#218,#219));
#436=EDGE_LOOP('',(#220,#221,#222,#223));
#437=EDGE_LOOP('',(#224,#225,#226,#227));
#438=EDGE_LOOP('',(#228,#229,#230,#231));
#439=EDGE_LOOP('',(#232,#233,#234,#235));
#440=EDGE_LOOP('',(#236,#237,#238,#239));
#441=EDGE_LOOP('',(#240,#241,#242,#243));
#442=EDGE_LOOP('',(#244,#245,#246,#247));
#443=EDGE_LOOP('',(#248,#249,#250,#251));
#444=EDGE_LOOP('',(#252,#253,#254,#255));
#445=EDGE_LOOP('',(#256,#257,#258,#259));
#446=EDGE_LOOP('',(#260,#261,#262,#263));
#447=EDGE_LOOP('',(#264,#265,#266,#267));
#448=EDGE_LOOP('',(#268,#269,#270,#271));
#449=EDGE_LOOP('',(#272,#273,#274,#275));
#450=FACE_BOUND('',#416,.T.);
#451=FACE_BOUND('',#417,.T.);
#452=FACE_BOUND('',#418,.T.);
#453=FACE_BOUND('',#419,.T.);
#454=FACE_BOUND('',#420,.T.);
#455=FACE_BOUND('',#421,.T.);
#456=FACE_BOUND('',#422,.T.);
#457=FACE_BOUND('',#423,.T.);
#458=FACE_BOUND('',#424,.T.);
#459=FACE_BOUND('',#425,.T.);
#460=FACE_BOUND('',#426,.T.);
#461=FACE_BOUND('',#427,.T.);
#462=FACE_BOUND('',#428,.T.);
#463=FACE_BOUND('',#429,.T.);
#464=FACE_BOUND('',#430,.T.);
#465=FACE_BOUND('',#431,.T.);
#466=FACE_BOUND('',#432,.T.);
#467=FACE_BOUND('',#433,.T.);
#468=FACE_BOUND('',#434,.T.);
#469=FACE_BOUND('',#435,.T.);
#470=FACE_BOUND('',#436,.T.);
#471=FACE_BOUND('',#437,.T.);
#472=FACE_BOUND('',#438,.T.);
#473=FACE_BOUND('',#439,.T.);
#474=FACE_BOUND('',#440,.T.);
#475=FACE_BOUND('',#441,.T.);
#476=FACE_BOUND('',#442,.T.);
#477=FACE_BOUND('',#443,.T.);
#478=FACE_BOUND('',#444,.T.);
#479=FACE_BOUND('',#445,.T.);
#480=FACE_BOUND('',#446,.T.);
#481=FACE_BOUND('',#447,.T.);
#482=FACE_BOUND('',#448,.T.);
#483=FACE_BOUND('',#449,.T.);
#484=CYLINDRICAL_SURFACE('',#533,7.00000000000001);
#485=CYLINDRICAL_SURFACE('',#547,4.);
#486=CYLINDRICAL_SURFACE('',#564,3.1);
#487=CYLINDRICAL_SURFACE('',#566,3.1);
#488=CYLINDRICAL_SURFACE('',#568,3.1);
#489=CYLINDRICAL_SURFACE('',#570,3.1);
#490=CYLINDRICAL_SURFACE('',#572,3.1);
#491=CYLINDRICAL_SURFACE('',#574,3.1);
#492=CYLINDRICAL_SURFACE('',#576,3.1);
#493=CYLINDRICAL_SURFACE('',#578,3.1);
#494=ADVANCED_FACE('',(#450),#484,.T.);
#495=ADVANCED_FACE('',(#451,#452,#453),#12,.F.);
#496=ADVANCED_FACE('',(#454),#13,.F.);
#497=ADVANCED_FACE('',(#455,#456,#457),#14,.F.);
#498=ADVANCED_FACE('',(#458),#485,.F.);
#499=ADVANCED_FACE('',(#459,#460,#461),#15,.F.);
#500=ADVANCED_FACE('',(#462),#16,.F.);
#501=ADVANCED_FACE('',(#463,#464,#465),#17,.F.);
#502=ADVANCED_FACE('',(#466),#18,.T.);
#503=ADVANCED_FACE('',(#467),#19,.F.);
#504=ADVANCED_FACE('',(#468),#20,.T.);
#505=ADVANCED_FACE('',(#469),#486,.F.);
#506=ADVANCED_FACE('',(#470),#21,.T.);
#507=ADVANCED_FACE('',(#471),#487,.F.);
#508=ADVANCED_FACE('',(#472),#22,.T.);
#509=ADVANCED_FACE('',(#473),#488,.F.);
#510=ADVANCED_FACE('',(#474),#23,.T.);
#511=ADVANCED_FACE('',(#475),#489,.F.);
#512=ADVANCED_FACE('',(#476),#24,.F.);
#513=ADVANCED_FACE('',(#477),#490,.F.);
#514=ADVANCED_FACE('',(#478),#25,.F.);
#515=ADVANCED_FACE('',(#479),#491,.F.);
#516=ADVANCED_FACE('',(#480),#26,.F.);
#517=ADVANCED_FACE('',(#481),#492,.F.);
#518=ADVANCED_FACE('',(#482),#27,.F.);
#519=ADVANCED_FACE('',(#483),#493,.F.);
#520=CLOSED_SHELL('',(#494,#495,#496,#497,#498,#499,#500,#501,#502,#503,
#504,#505,#506,#507,#508,#509,#510,#511,#512,#513,#514,#515,#516,#517,#518,
#519));
#521=STYLED_ITEM('',(#522),#529);
#522=PRESENTATION_STYLE_ASSIGNMENT((#523));
#523=SURFACE_STYLE_USAGE(.BOTH.,#524);
#524=SURFACE_SIDE_STYLE('',(#525));
#525=SURFACE_STYLE_FILL_AREA(#526);
#526=FILL_AREA_STYLE('',(#527));
#527=FILL_AREA_STYLE_COLOUR('',#528);
#528=COLOUR_RGB('',0.47843137383461,0.47843137383461,0.47843137383461);
#529=MANIFOLD_SOLID_BREP('093043W',#520);
#530=SHAPE_DEFINITION_REPRESENTATION(#878,#531);
#531=SHAPE_REPRESENTATION('093043W',(#532),#873);
#532=AXIS2_PLACEMENT_3D('',#725,#579,#580);
#533=AXIS2_PLACEMENT_3D('',#726,#581,#582);
#534=AXIS2_PLACEMENT_3D('',#727,#583,#584);
#535=AXIS2_PLACEMENT_3D('',#732,#586,#587);
#536=AXIS2_PLACEMENT_3D('',#735,#589,#590);
#537=AXIS2_PLACEMENT_3D('',#739,#592,#593);
#538=AXIS2_PLACEMENT_3D('',#743,#595,#596);
#539=AXIS2_PLACEMENT_3D('',#747,#598,#599);
#540=AXIS2_PLACEMENT_3D('',#751,#601,#602);
#541=AXIS2_PLACEMENT_3D('',#757,#606,#607);
#542=AXIS2_PLACEMENT_3D('',#763,#611,#612);
#543=AXIS2_PLACEMENT_3D('',#767,#614,#615);
#544=AXIS2_PLACEMENT_3D('',#771,#617,#618);
#545=AXIS2_PLACEMENT_3D('',#775,#620,#621);
#546=AXIS2_PLACEMENT_3D('',#779,#623,#624);
#547=AXIS2_PLACEMENT_3D('',#785,#628,#629);
#548=AXIS2_PLACEMENT_3D('',#786,#630,#631);
#549=AXIS2_PLACEMENT_3D('',#790,#633,#634);
#550=AXIS2_PLACEMENT_3D('',#791,#635,#636);
#551=AXIS2_PLACEMENT_3D('',#792,#637,#638);
#552=AXIS2_PLACEMENT_3D('',#797,#640,#641);
#553=AXIS2_PLACEMENT_3D('',#800,#643,#644);
#554=AXIS2_PLACEMENT_3D('',#805,#646,#647);
#555=AXIS2_PLACEMENT_3D('',#813,#652,#653);
#556=AXIS2_PLACEMENT_3D('',#819,#657,#658);
#557=AXIS2_PLACEMENT_3D('',#820,#659,#660);
#558=AXIS2_PLACEMENT_3D('',#825,#662,#663);
#559=AXIS2_PLACEMENT_3D('',#828,#665,#666);
#560=AXIS2_PLACEMENT_3D('',#833,#668,#669);
#561=AXIS2_PLACEMENT_3D('',#838,#673,#674);
#562=AXIS2_PLACEMENT_3D('',#839,#675,#676);
#563=AXIS2_PLACEMENT_3D('',#840,#677,#678);
#564=AXIS2_PLACEMENT_3D('',#843,#681,#682);
#565=AXIS2_PLACEMENT_3D('',#845,#684,#685);
#566=AXIS2_PLACEMENT_3D('',#847,#687,#688);
#567=AXIS2_PLACEMENT_3D('',#848,#689,#690);
#568=AXIS2_PLACEMENT_3D('',#851,#693,#694);
#569=AXIS2_PLACEMENT_3D('',#853,#696,#697);
#570=AXIS2_PLACEMENT_3D('',#855,#699,#700);
#571=AXIS2_PLACEMENT_3D('',#856,#701,#702);
#572=AXIS2_PLACEMENT_3D('',#859,#705,#706);
#573=AXIS2_PLACEMENT_3D('',#861,#708,#709);
#574=AXIS2_PLACEMENT_3D('',#863,#711,#712);
#575=AXIS2_PLACEMENT_3D('',#864,#713,#714);
#576=AXIS2_PLACEMENT_3D('',#867,#717,#718);
#577=AXIS2_PLACEMENT_3D('',#869,#720,#721);
#578=AXIS2_PLACEMENT_3D('',#871,#723,#724);
#579=DIRECTION('',(0.,0.,1.));
#580=DIRECTION('',(1.,0.,0.));
#581=DIRECTION('',(0.,0.,-1.));
#582=DIRECTION('',(-1.,0.,0.));
#583=DIRECTION('',(0.,0.,1.));
#584=DIRECTION('',(1.,0.,0.));
#585=DIRECTION('',(0.,0.,-1.));
#586=DIRECTION('',(0.,0.,1.));
#587=DIRECTION('',(1.,0.,0.));
#588=DIRECTION('',(0.,0.,-1.));
#589=DIRECTION('',(1.,0.,0.));
#590=DIRECTION('',(0.,0.,-1.));
#591=DIRECTION('',(0.,-1.,0.));
#592=DIRECTION('',(1.,0.,0.));
#593=DIRECTION('',(0.,0.,-1.));
#594=DIRECTION('',(0.,1.,0.));
#595=DIRECTION('',(1.,0.,0.));
#596=DIRECTION('',(0.,0.,-1.));
#597=DIRECTION('',(0.,-1.,0.));
#598=DIRECTION('',(1.,0.,0.));
#599=DIRECTION('',(0.,0.,-1.));
#600=DIRECTION('',(0.,1.,0.));
#601=DIRECTION('',(1.,0.,0.));
#602=DIRECTION('',(0.,0.,-1.));
#603=DIRECTION('',(0.,-1.,0.));
#604=DIRECTION('',(0.,0.,-1.));
#605=DIRECTION('',(0.,-1.,0.));
#606=DIRECTION('',(0.,1.,0.));
#607=DIRECTION('',(0.,0.,1.));
#608=DIRECTION('',(1.,0.,0.));
#609=DIRECTION('',(0.,0.,-1.));
#610=DIRECTION('',(1.,0.,0.));
#611=DIRECTION('',(-1.,0.,0.));
#612=DIRECTION('',(0.,0.,1.));
#613=DIRECTION('',(0.,-1.,0.));
#614=DIRECTION('',(1.,0.,0.));
#615=DIRECTION('',(0.,0.,-1.));
#616=DIRECTION('',(0.,1.,0.));
#617=DIRECTION('',(1.,0.,0.));
#618=DIRECTION('',(0.,0.,-1.));
#619=DIRECTION('',(0.,-1.,0.));
#620=DIRECTION('',(1.,0.,0.));
#621=DIRECTION('',(0.,0.,-1.));
#622=DIRECTION('',(0.,1.,0.));
#623=DIRECTION('',(1.,0.,0.));
#624=DIRECTION('',(0.,0.,-1.));
#625=DIRECTION('',(0.,1.,0.));
#626=DIRECTION('',(0.,0.,-1.));
#627=DIRECTION('',(0.,1.,0.));
#628=DIRECTION('',(0.,0.,-1.));
#629=DIRECTION('',(-1.,0.,0.));
#630=DIRECTION('',(0.,0.,1.));
#631=DIRECTION('',(1.,0.,0.));
#632=DIRECTION('',(0.,0.,-1.));
#633=DIRECTION('',(0.,0.,1.));
#634=DIRECTION('',(1.,0.,0.));
#635=DIRECTION('',(0.,1.,0.));
#636=DIRECTION('',(0.,0.,1.));
#637=DIRECTION('',(0.,1.,0.));
#638=DIRECTION('',(1.,0.,0.));
#639=DIRECTION('',(-1.,0.,0.));
#640=DIRECTION('',(0.,1.,0.));
#641=DIRECTION('',(1.,0.,0.));
#642=DIRECTION('',(1.,0.,0.));
#643=DIRECTION('',(0.,1.,0.));
#644=DIRECTION('',(1.,0.,0.));
#645=DIRECTION('',(-1.,0.,0.));
#646=DIRECTION('',(0.,1.,0.));
#647=DIRECTION('',(1.,0.,0.));
#648=DIRECTION('',(1.,0.,0.));
#649=DIRECTION('',(1.,0.,0.));
#650=DIRECTION('',(0.,0.,-1.));
#651=DIRECTION('',(1.,0.,0.));
#652=DIRECTION('',(-1.,0.,0.));
#653=DIRECTION('',(0.,0.,1.));
#654=DIRECTION('',(0.,1.,0.));
#655=DIRECTION('',(0.,0.,-1.));
#656=DIRECTION('',(0.,1.,0.));
#657=DIRECTION('',(0.,-1.,0.));
#658=DIRECTION('',(0.,0.,-1.));
#659=DIRECTION('',(0.,1.,0.));
#660=DIRECTION('',(1.,0.,0.));
#661=DIRECTION('',(-1.,0.,0.));
#662=DIRECTION('',(0.,1.,0.));
#663=DIRECTION('',(1.,0.,0.));
#664=DIRECTION('',(1.,0.,0.));
#665=DIRECTION('',(0.,1.,0.));
#666=DIRECTION('',(1.,0.,0.));
#667=DIRECTION('',(-1.,0.,0.));
#668=DIRECTION('',(0.,1.,0.));
#669=DIRECTION('',(1.,0.,0.));
#670=DIRECTION('',(1.,0.,0.));
#671=DIRECTION('',(-1.,0.,0.));
#672=DIRECTION('',(-1.,0.,0.));
#673=DIRECTION('',(0.,0.,1.));
#674=DIRECTION('',(1.,0.,0.));
#675=DIRECTION('',(0.,0.,1.));
#676=DIRECTION('',(1.,0.,0.));
#677=DIRECTION('',(0.,0.,-1.));
#678=DIRECTION('',(-1.,0.,0.));
#679=DIRECTION('',(-1.,0.,0.));
#680=DIRECTION('',(-1.,0.,0.));
#681=DIRECTION('',(-1.,0.,0.));
#682=DIRECTION('',(0.,0.,1.));
#683=DIRECTION('',(-1.,0.,0.));
#684=DIRECTION('',(0.,0.,1.));
#685=DIRECTION('',(1.,0.,0.));
#686=DIRECTION('',(-1.,0.,0.));
#687=DIRECTION('',(-1.,0.,0.));
#688=DIRECTION('',(0.,0.,1.));
#689=DIRECTION('',(0.,0.,-1.));
#690=DIRECTION('',(-1.,0.,0.));
#691=DIRECTION('',(-1.,0.,0.));
#692=DIRECTION('',(-1.,0.,0.));
#693=DIRECTION('',(-1.,0.,0.));
#694=DIRECTION('',(0.,0.,1.));
#695=DIRECTION('',(-1.,0.,0.));
#696=DIRECTION('',(0.,0.,1.));
#697=DIRECTION('',(1.,0.,0.));
#698=DIRECTION('',(-1.,0.,0.));
#699=DIRECTION('',(-1.,0.,0.));
#700=DIRECTION('',(0.,0.,1.));
#701=DIRECTION('',(0.,0.,-1.));
#702=DIRECTION('',(-1.,0.,0.));
#703=DIRECTION('',(0.,1.,0.));
#704=DIRECTION('',(0.,1.,0.));
#705=DIRECTION('',(0.,1.,0.));
#706=DIRECTION('',(0.,0.,1.));
#707=DIRECTION('',(0.,1.,0.));
#708=DIRECTION('',(0.,0.,1.));
#709=DIRECTION('',(1.,0.,0.));
#710=DIRECTION('',(0.,1.,0.));
#711=DIRECTION('',(0.,1.,0.));
#712=DIRECTION('',(0.,0.,1.));
#713=DIRECTION('',(0.,0.,-1.));
#714=DIRECTION('',(-1.,0.,0.));
#715=DIRECTION('',(0.,1.,0.));
#716=DIRECTION('',(0.,1.,0.));
#717=DIRECTION('',(0.,1.,0.));
#718=DIRECTION('',(0.,0.,1.));
#719=DIRECTION('',(0.,1.,0.));
#720=DIRECTION('',(0.,0.,1.));
#721=DIRECTION('',(1.,0.,0.));
#722=DIRECTION('',(0.,1.,0.));
#723=DIRECTION('',(0.,1.,0.));
#724=DIRECTION('',(0.,0.,1.));
#725=CARTESIAN_POINT('',(0.,0.,0.));
#726=CARTESIAN_POINT('',(7.00000000000001,43.,25.));
#727=CARTESIAN_POINT('',(7.00000000000001,43.,-25.));
#728=CARTESIAN_POINT('',(7.,50.,-25.));
#729=CARTESIAN_POINT('',(0.,43.,-25.));
#730=CARTESIAN_POINT('',(0.,43.,25.));
#731=CARTESIAN_POINT('',(0.,43.,25.));
#732=CARTESIAN_POINT('',(7.00000000000001,43.,25.));
#733=CARTESIAN_POINT('',(7.,50.,25.));
#734=CARTESIAN_POINT('',(7.,50.,25.));
#735=CARTESIAN_POINT('',(0.,43.,25.));
#736=CARTESIAN_POINT('',(0.,39.5,-15.4));
#737=CARTESIAN_POINT('',(0.,39.5,-15.4));
#738=CARTESIAN_POINT('',(0.,5.5,-15.4));
#739=CARTESIAN_POINT('',(0.,5.5,-18.5));
#740=CARTESIAN_POINT('',(0.,5.5,-21.6));
#741=CARTESIAN_POINT('',(0.,5.5,-21.6));
#742=CARTESIAN_POINT('',(0.,39.5,-21.6));
#743=CARTESIAN_POINT('',(0.,39.5,-18.5));
#744=CARTESIAN_POINT('',(0.,39.5,21.6));
#745=CARTESIAN_POINT('',(0.,39.5,21.6));
#746=CARTESIAN_POINT('',(0.,5.5,21.6));
#747=CARTESIAN_POINT('',(0.,5.5,18.5));
#748=CARTESIAN_POINT('',(0.,5.5,15.4));
#749=CARTESIAN_POINT('',(0.,5.5,15.4));
#750=CARTESIAN_POINT('',(0.,39.5,15.4));
#751=CARTESIAN_POINT('',(0.,39.5,18.5));
#752=CARTESIAN_POINT('',(0.,43.,-25.));
#753=CARTESIAN_POINT('',(0.,0.,-25.));
#754=CARTESIAN_POINT('',(0.,0.,25.));
#755=CARTESIAN_POINT('',(0.,0.,25.));
#756=CARTESIAN_POINT('',(0.,43.,25.));
#757=CARTESIAN_POINT('',(0.,0.,25.));
#758=CARTESIAN_POINT('',(0.,0.,-25.));
#759=CARTESIAN_POINT('',(3.,0.,-25.));
#760=CARTESIAN_POINT('',(3.,0.,25.));
#761=CARTESIAN_POINT('',(3.,0.,25.));
#762=CARTESIAN_POINT('',(0.,0.,25.));
#763=CARTESIAN_POINT('',(3.,0.,25.));
#764=CARTESIAN_POINT('',(3.,39.5,-15.4));
#765=CARTESIAN_POINT('',(3.,39.5,-15.4));
#766=CARTESIAN_POINT('',(3.,5.5,-15.4));
#767=CARTESIAN_POINT('',(3.,39.5,-18.5));
#768=CARTESIAN_POINT('',(3.,39.5,-21.6));
#769=CARTESIAN_POINT('',(3.,5.5,-21.6));
#770=CARTESIAN_POINT('',(3.,5.5,-21.6));
#771=CARTESIAN_POINT('',(3.,5.5,-18.5));
#772=CARTESIAN_POINT('',(3.,39.5,21.6));
#773=CARTESIAN_POINT('',(3.,39.5,21.6));
#774=CARTESIAN_POINT('',(3.,5.5,21.6));
#775=CARTESIAN_POINT('',(3.,39.5,18.5));
#776=CARTESIAN_POINT('',(3.,39.5,15.4));
#777=CARTESIAN_POINT('',(3.,5.5,15.4));
#778=CARTESIAN_POINT('',(3.,5.5,15.4));
#779=CARTESIAN_POINT('',(3.,5.5,18.5));
#780=CARTESIAN_POINT('',(3.,0.,-25.));
#781=CARTESIAN_POINT('',(3.,43.,-25.));
#782=CARTESIAN_POINT('',(3.,43.,25.));
#783=CARTESIAN_POINT('',(3.,43.,25.));
#784=CARTESIAN_POINT('',(3.,0.,25.));
#785=CARTESIAN_POINT('',(7.,43.,25.));
#786=CARTESIAN_POINT('',(7.,43.,-25.));
#787=CARTESIAN_POINT('',(7.,47.,-25.));
#788=CARTESIAN_POINT('',(7.,47.,25.));
#789=CARTESIAN_POINT('',(7.,47.,25.));
#790=CARTESIAN_POINT('',(7.,43.,25.));
#791=CARTESIAN_POINT('',(7.,47.,25.));
#792=CARTESIAN_POINT('',(29.5,47.,-18.5));
#793=CARTESIAN_POINT('',(29.5,47.,-15.4));
#794=CARTESIAN_POINT('',(29.5,47.,-21.6));
#795=CARTESIAN_POINT('',(29.5,47.,-21.6));
#796=CARTESIAN_POINT('',(10.5,47.,-21.6));
#797=CARTESIAN_POINT('',(10.5,47.,-18.5));
#798=CARTESIAN_POINT('',(10.5,47.,-15.4));
#799=CARTESIAN_POINT('',(10.5,47.,-15.4));
#800=CARTESIAN_POINT('',(29.5,47.,18.5));
#801=CARTESIAN_POINT('',(29.5,47.,21.6));
#802=CARTESIAN_POINT('',(29.5,47.,15.4));
#803=CARTESIAN_POINT('',(29.5,47.,15.4));
#804=CARTESIAN_POINT('',(10.5,47.,15.4));
#805=CARTESIAN_POINT('',(10.5,47.,18.5));
#806=CARTESIAN_POINT('',(10.5,47.,21.6));
#807=CARTESIAN_POINT('',(10.5,47.,21.6));
#808=CARTESIAN_POINT('',(7.,47.,-25.));
#809=CARTESIAN_POINT('',(35.,47.,-25.));
#810=CARTESIAN_POINT('',(35.,47.,25.));
#811=CARTESIAN_POINT('',(35.,47.,25.));
#812=CARTESIAN_POINT('',(7.,47.,25.));
#813=CARTESIAN_POINT('',(35.,47.,25.));
#814=CARTESIAN_POINT('',(35.,47.,-25.));
#815=CARTESIAN_POINT('',(35.,50.,-25.));
#816=CARTESIAN_POINT('',(35.,50.,25.));
#817=CARTESIAN_POINT('',(35.,50.,25.));
#818=CARTESIAN_POINT('',(35.,47.,25.));
#819=CARTESIAN_POINT('',(35.,50.,25.));
#820=CARTESIAN_POINT('',(10.5,50.,-18.5));
#821=CARTESIAN_POINT('',(10.5,50.,-21.6));
#822=CARTESIAN_POINT('',(10.5,50.,-15.4));
#823=CARTESIAN_POINT('',(29.5,50.,-21.6));
#824=CARTESIAN_POINT('',(29.5,50.,-21.6));
#825=CARTESIAN_POINT('',(29.5,50.,-18.5));
#826=CARTESIAN_POINT('',(29.5,50.,-15.4));
#827=CARTESIAN_POINT('',(10.5,50.,-15.4));
#828=CARTESIAN_POINT('',(10.5,50.,18.5));
#829=CARTESIAN_POINT('',(10.5,50.,15.4));
#830=CARTESIAN_POINT('',(10.5,50.,21.6));
#831=CARTESIAN_POINT('',(29.5,50.,15.4));
#832=CARTESIAN_POINT('',(29.5,50.,15.4));
#833=CARTESIAN_POINT('',(29.5,50.,18.5));
#834=CARTESIAN_POINT('',(29.5,50.,21.6));
#835=CARTESIAN_POINT('',(10.5,50.,21.6));
#836=CARTESIAN_POINT('',(35.,50.,-25.));
#837=CARTESIAN_POINT('',(35.,50.,25.));
#838=CARTESIAN_POINT('',(7.00000000000001,43.,25.));
#839=CARTESIAN_POINT('',(7.00000000000001,43.,-25.));
#840=CARTESIAN_POINT('',(3.,39.5,21.6));
#841=CARTESIAN_POINT('',(3.,39.5,21.6));
#842=CARTESIAN_POINT('',(3.,5.5,21.6));
#843=CARTESIAN_POINT('',(3.,5.5,18.5));
#844=CARTESIAN_POINT('',(3.,5.5,15.4));
#845=CARTESIAN_POINT('',(3.,5.5,15.4));
#846=CARTESIAN_POINT('',(3.,39.5,15.4));
#847=CARTESIAN_POINT('',(3.,39.5,18.5));
#848=CARTESIAN_POINT('',(3.,39.5,-15.4));
#849=CARTESIAN_POINT('',(3.,39.5,-15.4));
#850=CARTESIAN_POINT('',(3.,5.5,-15.4));
#851=CARTESIAN_POINT('',(3.,5.5,-18.5));
#852=CARTESIAN_POINT('',(3.,5.5,-21.6));
#853=CARTESIAN_POINT('',(3.,5.5,-21.6));
#854=CARTESIAN_POINT('',(3.,39.5,-21.6));
#855=CARTESIAN_POINT('',(3.,39.5,-18.5));
#856=CARTESIAN_POINT('',(29.5,47.,15.4));
#857=CARTESIAN_POINT('',(10.5,47.,15.4));
#858=CARTESIAN_POINT('',(29.5,47.,15.4));
#859=CARTESIAN_POINT('',(10.5,47.,18.5));
#860=CARTESIAN_POINT('',(10.5,47.,21.6));
#861=CARTESIAN_POINT('',(10.5,47.,21.6));
#862=CARTESIAN_POINT('',(29.5,47.,21.6));
#863=CARTESIAN_POINT('',(29.5,47.,18.5));
#864=CARTESIAN_POINT('',(29.5,47.,-21.6));
#865=CARTESIAN_POINT('',(10.5,47.,-21.6));
#866=CARTESIAN_POINT('',(29.5,47.,-21.6));
#867=CARTESIAN_POINT('',(10.5,47.,-18.5));
#868=CARTESIAN_POINT('',(10.5,47.,-15.4));
#869=CARTESIAN_POINT('',(10.5,47.,-15.4));
#870=CARTESIAN_POINT('',(29.5,47.,-15.4));
#871=CARTESIAN_POINT('',(29.5,47.,-18.5));
#872=MECHANICAL_DESIGN_GEOMETRIC_PRESENTATION_REPRESENTATION('',(#521),
#873);
#873=(
GEOMETRIC_REPRESENTATION_CONTEXT(3)
GLOBAL_UNCERTAINTY_ASSIGNED_CONTEXT((#874))
GLOBAL_UNIT_ASSIGNED_CONTEXT((#877,#876,#875))
REPRESENTATION_CONTEXT('093043W','TOP_LEVEL_ASSEMBLY_PART')
);
#874=UNCERTAINTY_MEASURE_WITH_UNIT(LENGTH_MEASURE(1.E-5),#877,
'DISTANCE_ACCURACY_VALUE','Maximum Tolerance applied to model');
#875=(
NAMED_UNIT(*)
SI_UNIT($,.STERADIAN.)
SOLID_ANGLE_UNIT()
);
#876=(
NAMED_UNIT(*)
PLANE_ANGLE_UNIT()
SI_UNIT($,.RADIAN.)
);
#877=(
LENGTH_UNIT()
NAMED_UNIT(*)
SI_UNIT(.MILLI.,.METRE.)
);
#878=PRODUCT_DEFINITION_SHAPE('','',#879);
#879=PRODUCT_DEFINITION('','',#881,#880);
#880=PRODUCT_DEFINITION_CONTEXT('',#887,'design');
#881=PRODUCT_DEFINITION_FORMATION_WITH_SPECIFIED_SOURCE('','',#883,
 .NOT_KNOWN.);
#882=PRODUCT_RELATED_PRODUCT_CATEGORY('','',(#883));
#883=PRODUCT('093043W','093043W','093043W',(#885));
#884=PRODUCT_CATEGORY('','');
#885=PRODUCT_CONTEXT('',#887,'mechanical');
#886=APPLICATION_PROTOCOL_DEFINITION('international standard',
'ap242_managed_model_based_3d_engineering',2011,#887);
#887=APPLICATION_CONTEXT('managed model based 3d engineering');
ENDSEC;
END-ISO-10303-21;
